<svg width="54" height="51" viewBox="0 0 54 51" fill="none" xmlns="http://www.w3.org/2000/svg">
<path d="M26.5575 38.8133C28.7372 38.8159 30.8068 39.9019 32.9611 39.029C34.6726 38.3348 36.0169 36.649 36.3181 34.3762C36.5881 32.3394 35.8036 30.4508 34.4768 28.8301C30.3051 23.7357 22.8099 23.7357 18.6381 28.8301C17.3113 30.4508 16.5279 32.3382 16.7968 34.3762C17.0969 36.649 18.4423 38.3361 20.1539 39.029C22.3081 39.9019 24.3777 38.8172 26.5575 38.8133Z" fill="black"/>
<path d="M22.202 21.1301C24.0383 20.7367 25.1795 18.451 24.7509 16.0247C24.3223 13.5985 22.4863 11.9505 20.65 12.3439C18.8137 12.7373 17.6725 15.023 18.1011 17.4492C18.5297 19.8755 20.3657 21.5234 22.202 21.1301Z" fill="black"/>
<path d="M13.9778 27.0963C15.5741 26.7543 16.566 24.7666 16.1933 22.6565C15.8206 20.5464 14.2244 19.1131 12.6281 19.455C11.0318 19.797 10.0399 21.7848 10.4126 23.8948C10.7853 26.0049 12.3815 27.4383 13.9778 27.0963Z" fill="black"/>
<path d="M35.0136 17.449C35.442 15.0227 34.3008 12.737 32.4645 12.3438C30.6282 11.9505 28.7922 13.5986 28.3638 16.0248C27.9353 18.4511 29.0766 20.7368 30.9129 21.13C32.7492 21.5233 34.5851 19.8752 35.0136 17.449Z" fill="black"/>
<path d="M42.7024 23.8954C43.075 21.7853 42.083 19.7976 40.4867 19.4557C38.8903 19.1138 37.2942 20.5473 36.9216 22.6574C36.5489 24.7675 37.5409 26.7552 39.1373 27.097C40.7336 27.4389 42.3297 26.0055 42.7024 23.8954Z" fill="black"/>
<path d="M27 0C12.1161 0 0 11.443 0 25.5C0 39.557 12.1161 51 27 51C41.8839 51 54 39.5753 54 25.5C54 11.4247 41.9032 0 27 0ZM48.1742 25.5C48.1742 30.0151 46.5677 34.1828 43.8774 37.528L14.2645 9.57849C17.8065 7.03763 22.2194 5.52043 27 5.52043C38.671 5.50215 48.1742 14.4774 48.1742 25.5ZM5.82581 25.5C5.82581 20.9667 7.45161 16.7989 10.1419 13.4538L39.7548 41.4215C36.1936 43.9624 31.7806 45.4978 27 45.4978C15.329 45.4978 5.82581 36.5226 5.82581 25.5Z" fill="#212121"/>
</svg>
