<svg width="44" height="41" viewBox="0 0 44 41" fill="none" xmlns="http://www.w3.org/2000/svg">
<path d="M8.93759 17.0983C13.0282 17.0983 16.3488 14.004 16.3488 10.1987C16.3488 6.387 13.0282 3.29279 8.93759 3.29279C4.85384 3.29279 1.53321 6.387 1.53321 10.1987C1.52634 13.9976 4.85384 17.0983 8.93759 17.0983Z" fill="#1C243A"/>
<path d="M25.3462 16.9383C28.669 16.2102 30.7294 13.11 29.948 10.0137C29.1667 6.91741 25.8396 4.99758 22.5168 5.72563C19.1939 6.45368 17.1336 9.55392 17.915 12.6502C18.6963 15.7465 22.0234 17.6663 25.3462 16.9383Z" fill="#1C243A"/>
<path d="M34.4231 22.7871V31.4291L44 35.2536V18.9625L34.4231 22.7871Z" fill="#1C243A"/>
<path d="M31.5081 18.1617H2.15188C0.969375 18.1617 0 19.065 0 20.1669V35.7085C0 36.8167 0.969375 37.7136 2.15188 37.7136H31.5081C32.6906 37.7136 33.66 36.8167 33.66 35.7085V22.4283C33.66 22.4283 33.66 22.4283 33.66 22.4219V20.1669C33.66 19.065 32.6906 18.1617 31.5081 18.1617ZM24.5644 33.8699C24.5644 34.2414 24.2412 34.5361 23.8494 34.5361H9.81063C9.41188 34.5361 9.09562 34.2414 9.09562 33.8699V25.5802C9.09562 25.215 9.41188 24.9139 9.81063 24.9139H23.8494C24.2412 24.9139 24.5644 25.215 24.5644 25.5802V33.8699Z" fill="#1C243A"/>
<path d="M22.9763 26.2913H10.6838V33.0755H22.9763V26.2913Z" fill="#1C243A"/>
</svg>
