<svg width="45" height="42" viewBox="0 0 45 42" fill="none" xmlns="http://www.w3.org/2000/svg">
<g clip-path="url(#clip0_46_164)">
<path fill-rule="evenodd" clip-rule="evenodd" d="M45 0H0V42H45V0ZM16.7972 27.125C16.3509 29.608 14.0372 31.5 11.25 31.5C8.1434 31.5 5.625 29.1495 5.625 26.25C5.625 23.3505 8.1434 21 11.25 21C14.0372 21 16.3509 22.892 16.7972 25.375H11.25C10.7322 25.375 10.3125 25.7667 10.3125 26.25C10.3125 26.7333 10.7322 27.125 11.25 27.125H16.7972ZM18.692 27.125C18.2306 30.578 15.0746 33.25 11.25 33.25C7.10786 33.25 3.75 30.116 3.75 26.25C3.75 22.384 7.10786 19.25 11.25 19.25C15.0746 19.25 18.2306 21.922 18.692 25.375H21.0357L16.4609 13.4193C16.4237 13.322 16.406 13.2226 16.406 13.125H15C14.4822 13.125 14.0625 12.7333 14.0625 12.25C14.0625 11.7667 14.4822 11.375 15 11.375H19.2188C19.7365 11.375 20.1562 11.7667 20.1562 12.25C20.1562 12.7333 19.7365 13.125 19.2188 13.125H18.3393L20.0661 17.6377L27.6849 13.8951L26.7805 11.6875C26.6875 11.4603 26.7 11.2072 26.8149 10.9889C26.93 10.7705 27.1372 10.6068 27.3869 10.5369L32.0744 9.22443L32.9723 8.97295L33.5111 10.6492L32.6131 10.9006L28.8923 11.9424L31.9675 19.4489C32.5388 19.319 33.1358 19.25 33.75 19.25C37.8922 19.25 41.25 22.384 41.25 26.25C41.25 30.116 37.8922 33.25 33.75 33.25C29.6078 33.25 26.25 30.116 26.25 26.25C26.25 23.5765 27.8558 21.2531 30.2163 20.0742L28.6716 16.3035L23.3447 26.6296C23.1884 26.9324 22.8602 27.125 22.5 27.125H18.692ZM20.7031 19.3024L22.5516 24.1331L26.5168 16.4465L20.7031 19.3024ZM32.8743 26.5625L30.8933 21.7265C29.2363 22.64 28.125 24.3239 28.125 26.25C28.125 29.1495 30.6434 31.5 33.75 31.5C36.8566 31.5 39.375 29.1495 39.375 26.25C39.375 23.3505 36.8566 21 33.75 21C33.3716 21 33.002 21.0349 32.6445 21.1013L34.6257 25.9375C34.8106 26.3889 34.5684 26.8947 34.0848 27.0673C33.6012 27.2399 33.0592 27.0139 32.8743 26.5625Z" fill="#333333"/>
</g>
<defs>
<clipPath id="clip0_46_164">
<rect width="45" height="42" fill="white"/>
</clipPath>
</defs>
</svg>
