<svg width="40" height="38" viewBox="0 0 40 38" fill="none" xmlns="http://www.w3.org/2000/svg">
<path fill-rule="evenodd" clip-rule="evenodd" d="M25.8211 15.8967V16.8504C25.8211 17.5835 25.5198 18.2867 24.9837 18.8051C24.4475 19.3235 23.7204 19.6147 22.9621 19.6147H16.1865V13.1392H22.9621C23.7191 13.1392 24.4452 13.4295 24.9812 13.9464C25.5171 14.4634 25.8192 15.1647 25.8211 15.8967ZM35.2912 18.9997C35.2886 21.8682 34.4069 24.6716 32.7575 27.0559C31.1081 29.4402 28.7649 31.2984 26.0239 32.3958C23.283 33.4932 20.2672 33.7806 17.3574 33.2216C14.4476 32.6627 11.7744 31.2825 9.67535 29.2554C8.2007 27.9268 7.01792 26.3246 6.19758 24.5443C5.37723 22.7641 4.93612 20.8423 4.90056 18.8937C4.865 16.945 5.23573 15.0094 5.99061 13.2023C6.7455 11.3952 7.86909 9.75361 9.29434 8.37549C10.7196 6.99736 12.4173 5.91094 14.2862 5.18102C16.1552 4.4511 18.157 4.09263 20.1723 4.12702C22.1876 4.1614 24.1751 4.58792 26.0162 5.38113C27.8574 6.17435 29.5144 7.31801 30.8885 8.74389C32.2887 10.0859 33.399 11.6837 34.1548 13.4443C34.9106 15.205 35.2969 17.0934 35.2912 18.9997ZM27.9652 15.8967C27.9652 14.6137 27.4381 13.3832 26.4999 12.4759C25.5616 11.5687 24.289 11.059 22.9621 11.059H15.1001C14.8158 11.059 14.5431 11.1683 14.3421 11.3627C14.141 11.5571 14.028 11.8207 14.028 12.0957V27.2927C14.028 27.5677 14.141 27.8314 14.3421 28.0258C14.5431 28.2202 14.8158 28.3294 15.1001 28.3294C15.3845 28.3294 15.6572 28.2202 15.8582 28.0258C16.0593 27.8314 16.1722 27.5677 16.1722 27.2927V21.6811H22.9478C24.2748 21.6811 25.5473 21.1714 26.4856 20.2642C27.4238 19.357 27.9509 18.1265 27.9509 16.8435L27.9652 15.8967ZM39.9298 18.9997C39.9302 22.7575 38.7782 26.431 36.6193 29.5556C34.4604 32.6802 31.3916 35.1156 27.8011 36.5537C24.2107 37.9918 20.2598 38.3681 16.4482 37.6348C12.6365 36.9016 9.13541 35.0918 6.3876 32.4345C2.7026 28.8713 0.632385 24.0387 0.632385 18.9997C0.632385 13.9606 2.7026 9.128 6.3876 5.56487C10.0726 2.00174 15.0705 0 20.2819 0C25.4933 0 30.4912 2.00174 34.1762 5.56487C36.006 7.32536 37.4567 9.41917 38.4443 11.7252C39.4318 14.0312 39.9368 16.5037 39.9298 18.9997ZM37.4354 18.9997C37.4437 15.7133 36.4422 12.4986 34.558 9.76355C32.6737 7.02847 29.9916 4.89628 26.852 3.63755C23.7124 2.37883 20.2569 2.0503 16.9239 2.69367C13.5909 3.33703 10.5306 4.92328 8.13153 7.25113C4.90905 10.367 3.09868 14.5931 3.09868 18.9997C3.09868 23.4062 4.90905 27.6323 8.13153 30.7482C11.354 33.8641 15.7246 35.6146 20.2819 35.6146C24.8392 35.6146 29.2098 33.8641 32.4323 30.7482C34.0293 29.2078 35.2939 27.3761 36.1528 25.3592C37.0116 23.3424 37.4476 21.1807 37.4354 18.9997Z" fill="#222222"/>
</svg>
