<svg width="409" height="97" viewBox="0 0 409 97" fill="none" xmlns="http://www.w3.org/2000/svg">
<path d="M32.4997 9.46144C40.1426 9.49296 49.6046 9.29065 57.1662 9.41514C57.2722 9.41688 57.3782 9.41863 57.4842 9.42038C60.5747 9.47126 63.7237 9.54474 67.5335 9.63357C68.0188 9.64488 68.5161 9.65671 69.0241 9.66851C73.5404 9.77343 79.0883 9.89918 86.6482 10.039C112.033 10.5084 132.049 10.1964 138.274 10.0993C150.761 9.90439 164.08 9.90027 182.255 9.89481C183.917 9.89431 185.62 9.89461 187.367 9.89394C188.782 9.89339 189.953 10.0512 189.985 10.2469C190.017 10.4427 188.897 10.602 187.481 10.6025C185.771 10.6032 184.105 10.6038 182.481 10.6043C182.473 10.6043 182.466 10.6043 182.459 10.6043C164.17 10.6099 151.139 10.6141 138.947 10.8044C132.586 10.9036 112.079 11.2224 86.0675 10.7414C78.4272 10.6002 72.817 10.4739 68.2733 10.3684C67.7758 10.3568 67.291 10.3453 66.8197 10.3343C66.8086 10.334 66.7975 10.3337 66.7864 10.3334C62.9515 10.244 59.9352 10.1733 56.9775 10.1246C56.9147 10.1237 56.8518 10.1229 56.7889 10.122C49.1422 9.99608 39.8607 10.2006 32.448 10.17C31.0329 10.1641 29.8962 10.0005 29.9107 9.80482C29.9259 9.60925 31.0854 9.45575 32.4997 9.46144ZM345.414 88.8653C338.034 89.1249 328.217 89.0962 319.549 88.9806C310.821 88.8642 302.921 88.6548 299.203 88.5263C295.569 88.4006 291.53 88.36 286.712 88.3349C285.608 88.3292 284.462 88.3243 283.276 88.3192C279.361 88.3024 275.005 88.2835 270.224 88.2275C252.659 88.0218 241.208 88.0131 233.03 88.0318C231.348 88.0356 229.783 88.0409 228.318 88.0457C228.315 88.0457 228.313 88.0457 228.31 88.0457C222.781 88.0641 218.656 88.0775 214.862 87.9968C208.109 87.8531 202.595 87.7257 195.94 87.4769C186.761 87.1338 173.689 87.1746 165.182 87.4105C164.715 87.4235 164.237 87.4372 163.754 87.4507C157.587 87.6228 149.993 87.8346 138.607 87.9924C129.146 88.1236 120.901 88.1133 113.604 88.0763C111.512 88.0657 109.517 88.0526 107.601 88.0405C102.765 88.01 98.4366 87.9826 94.3595 87.9985C69.0755 88.0976 54.4944 87.9695 45.3299 87.7766C38.2818 87.6283 34.3445 87.4374 31.5043 87.2996C30.6459 87.2579 29.8879 87.2205 29.1741 87.1912C22.8097 86.93 16.9663 86.8126 9.93734 86.6714C8.37729 86.64 6.75437 86.6073 5.05881 86.5718C5.03919 86.5713 5.01954 86.5709 5 86.5705L9.42947 91C9.54691 85.3582 9.52632 81.1498 9.4763 77.8472C9.45433 76.3976 9.42727 75.1221 9.40116 73.9192C9.40057 73.897 9.39999 73.8748 9.39941 73.8526C9.39577 73.6849 9.39248 73.5185 9.38892 73.3533C9.38624 73.2287 9.38282 73.1043 9.38019 72.9797C9.37665 72.9307 9.37435 72.8868 9.37232 72.854C9.37072 72.828 9.36957 72.8078 9.36883 72.7948C9.36854 72.7923 9.36825 72.7899 9.36795 72.7874C9.35435 72.5514 9.34899 72.3482 9.34786 72.3066C9.34586 72.2339 9.34498 72.1694 9.34436 72.1364C9.34109 71.9624 9.33923 71.7381 9.33825 71.589C9.33572 71.2058 9.33274 70.5399 9.32951 69.5104C9.31929 68.614 9.30187 67.7538 9.27971 66.6772C9.27825 66.6094 9.2768 66.5416 9.27534 66.4738C9.2537 65.4237 9.22889 64.1949 9.20457 62.653C9.18244 61.2501 9.32198 59.9598 9.51649 59.7718C9.71101 59.5843 9.88658 60.5697 9.90879 61.9725C9.93171 63.4252 9.95528 64.5761 9.97694 65.6268C9.9784 65.6933 9.97985 65.7599 9.98131 65.8265C10.0039 66.9219 10.025 67.9596 10.0372 69.0776C10.0413 69.4519 10.0445 69.8378 10.0468 70.1983C10.0556 70.8473 10.0706 71.5857 10.0896 72.4693C10.0935 72.6467 10.0969 72.8296 10.101 73.0167C10.1271 74.2174 10.1575 75.6155 10.1814 77.1925C10.2351 80.7362 10.2566 85.1882 10.1437 91L5 85.8563C5.24166 85.8609 5.48557 85.8659 5.73197 85.871C7.35045 85.9049 8.91935 85.9364 10.4515 85.9671C17.5081 86.1087 23.7867 86.2342 30.5426 86.5115C31.4696 86.5495 32.3586 86.593 33.3092 86.639C36.1268 86.7755 39.4908 86.9388 46.0068 87.0759C54.737 87.2596 68.9712 87.3884 94.1117 87.29C98.3912 87.2732 103.008 87.3026 107.926 87.3336C109.804 87.3455 111.728 87.3569 113.692 87.3668C120.877 87.4032 128.862 87.4131 137.996 87.2865C149.129 87.1321 156.515 86.9266 162.655 86.7552C162.867 86.7491 163.08 86.743 163.292 86.7369C163.555 86.7296 163.816 86.7222 164.076 86.715C173.141 86.4635 187.051 86.4137 197.19 86.7928C203.553 87.0307 208.83 87.1532 215.546 87.2961C218.849 87.3663 222.378 87.3547 227.796 87.3371C229.317 87.3322 230.99 87.3274 232.845 87.3232C241.17 87.3042 252.796 87.3126 270.557 87.5206C275.187 87.5748 279.354 87.593 283.247 87.6097C284.456 87.615 285.643 87.6203 286.805 87.6263C291.646 87.6515 296.152 87.6925 300.353 87.8378C303.806 87.9572 311.451 88.1614 319.941 88.2746C328.492 88.3887 337.57 88.4058 344.057 88.1777C344.731 88.1539 345.411 88.1305 346.091 88.1069C351.943 87.9035 357.909 87.6962 362.713 87.3511C373.417 86.2732 388.439 85.9352 404 85.884L398.884 91C398.832 75.2611 399.074 58.9699 399.139 46.0344C399.141 45.6966 399.143 45.3588 399.145 45.021C399.226 28.998 399.258 15.3376 399.269 5L404 9.73127C395.181 9.72183 388.78 9.72752 385.393 9.73055C385.05 9.73086 384.738 9.73119 384.458 9.73142C384.207 9.73163 383.981 9.73218 383.781 9.7323C380.784 9.73412 378.133 9.75928 375.355 9.78559C375.204 9.78705 375.052 9.78851 374.9 9.78996C371.965 9.81768 368.884 9.84475 365.243 9.84239C351.703 9.83356 340.666 9.86583 331.115 9.90005C329.347 9.90639 327.628 9.91214 325.952 9.9184C325.947 9.9184 325.942 9.9184 325.937 9.9184C318.582 9.94589 312.057 9.97063 305.865 9.97082C294.573 9.97117 286.946 10.016 281.013 10.0643C279.153 10.0795 277.438 10.0949 275.82 10.1097C272.322 10.1418 269.266 10.1698 266.115 10.1796C260.188 10.1981 254.733 10.2468 249.36 10.2941C248.881 10.2983 248.403 10.3021 247.925 10.3063C242.1 10.3574 236.332 10.4047 230.234 10.4059C228.819 10.4062 227.645 10.247 227.616 10.0512C227.587 9.85555 228.712 9.69677 230.127 9.69647C236.05 9.69525 241.677 9.64964 247.5 9.59862C247.98 9.59441 248.463 9.58977 248.946 9.58551C254.306 9.53827 259.86 9.48981 265.897 9.47105C268.935 9.46161 271.821 9.4352 275.251 9.40378C276.887 9.38878 278.649 9.37256 280.61 9.3566C286.633 9.30755 294.36 9.26171 305.761 9.26136C311.879 9.26117 318.32 9.23728 325.671 9.20981C327.358 9.20351 329.093 9.197 330.882 9.19059C340.457 9.15628 351.551 9.12405 365.165 9.13292C368.606 9.13517 371.526 9.10984 374.449 9.08225C374.613 9.08079 374.777 9.07933 374.941 9.07788C377.695 9.05178 380.493 9.02475 383.659 9.02283C384.082 9.02258 384.622 9.02254 385.271 9.02196C388.671 9.01892 395.116 9.01309 404 9.02255L399.977 5C399.966 15.3676 399.935 29.0573 399.853 45.1061C399.853 45.1985 399.852 45.291 399.851 45.3835C399.75 65.352 399.693 76.6174 399.868 85.0998C399.912 87.2291 399.945 89.1873 399.971 91L404 86.9713C400.114 87.0268 396.896 87.0469 394.096 87.0584C393.313 87.0616 392.572 87.0647 391.866 87.0672C388.814 87.0777 386.402 87.0862 383.991 87.1353C376.699 87.284 371.47 87.5275 365.143 87.9819C359.779 88.3672 353.208 88.5951 347.452 88.7945C347.443 88.7948 347.435 88.7951 347.426 88.7954C346.743 88.8191 346.071 88.8422 345.414 88.8653ZM8.73363 42.3399C8.73948 40.9254 8.90243 39.7899 9.09797 39.8027C9.29367 39.8171 9.44799 40.9765 9.44222 42.3917C9.42824 45.7637 9.41426 49.1356 9.40028 52.5076C9.39439 53.9219 9.23147 55.0578 9.03594 55.0449C8.84026 55.0304 8.68596 53.8708 8.69169 52.4558C8.70567 49.0839 8.71965 45.7119 8.73363 42.3399ZM351.317 92.3925C349.937 92.4322 348.561 92.3082 348.247 92.1164C347.935 91.9248 348.802 91.7375 350.182 91.6979C350.911 91.6769 352.111 91.639 353.725 91.5878C361.967 91.3264 381.05 90.7211 404 90.2813L403.281 91C403.101 81.5803 402.948 71.5093 402.859 61.2692C402.833 58.3057 402.807 55.6508 402.783 53.1211C402.678 42.3012 402.174 33.6151 402.195 12.9202C402.197 10.2801 402.201 7.64002 402.205 5L404 6.7953C319.627 6.66602 235.318 5.838 151.075 6.43661C125.983 6.61492 100.97 6.64159 75.8592 6.6297C54.9293 6.61979 16.5644 6.25628 7.53742 6.21905C6.12176 6.21322 4.98567 6.04958 5.00014 5.85384C5.01526 5.6582 6.17419 5.50467 7.5892 5.51046C16.5525 5.54742 54.7897 5.91038 75.641 5.92024C100.704 5.93209 125.666 5.90597 150.709 5.72802C235.014 5.12895 319.554 5.14891 404 5.22919L403.771 5C403.768 7.6784 403.766 10.3567 403.763 13.0349C403.743 33.5285 403.385 41.8704 403.49 52.6513C403.514 55.187 403.54 57.8566 403.566 60.8476C403.657 71.2486 403.814 81.4693 403.999 91C381.739 91.431 363.242 92.0171 355.005 92.278C353.339 92.3308 352.089 92.3703 351.317 92.3925ZM285.492 92.0963C269.69 92.1499 247.227 92.0545 227.597 91.9705C218.023 91.9295 209.123 91.8908 201.998 91.8744C190.959 91.849 184.009 91.6793 177.117 91.5109C177.043 91.5092 176.969 91.5074 176.895 91.5057C170.008 91.3374 163.115 91.1718 151.903 91.1457C140.599 91.1194 124.958 91.2347 109.18 91.351C109.168 91.351 109.155 91.351 109.143 91.351C93.4496 91.4667 77.531 91.9428 66.0276 91.9155C39.0391 91.8513 19.0169 91.6096 5 91.3418L4.66245 91.346L4.65817 91C4.78813 84.1974 4.92422 78.8091 5.04914 74.7255C5.7179 52.8638 4.9678 28.0682 5.81365 5.73423C6.00097 3.27103 6.54026 7.42567 6.38506 11.9665C6.38069 12.1304 6.37632 12.2944 6.37196 12.4584C6.33129 14.0201 6.29827 15.3867 6.27148 17.3111C6.24956 20.0996 6.24809 22.1747 6.24701 24.0685C6.24417 29.0376 6.11537 63.5333 5.742 75.7389C5.62616 79.5265 5.58499 84.5722 5.57949 91L5 90.4205C18.7012 90.4322 38.6817 90.2819 66.1423 90.3471C77.4327 90.3739 93.0325 90.7587 108.81 90.6424C108.853 90.6421 108.896 90.6419 108.94 90.6416C124.602 90.5261 140.396 90.4095 151.889 90.4362C163.506 90.4633 170.713 90.6371 177.69 90.8076C177.758 90.8093 177.826 90.8111 177.894 90.8128C184.722 90.9797 191.352 91.1413 201.983 91.1658C209.265 91.1826 218.269 91.2207 227.904 91.2619C247.45 91.3456 269.599 91.4409 285.266 91.3877C286.68 91.383 287.878 91.538 287.94 91.7337C288.002 91.9293 286.905 92.0915 285.492 92.0963ZM285.166 96.513C240.765 97.2987 196.116 97.0782 152.332 96.2482C140.905 96.2217 124.958 96.1666 109.032 96.1111C108.852 96.1102 108.672 96.1093 108.492 96.1085C92.7389 96.0535 77.055 95.9989 65.7946 95.9722C38.9992 95.9085 19.0295 95.8302 5 95.6711L0.387389 95.7282L0.328896 91C0.407806 84.0412 0.506595 78.5439 0.63334 74.4C0.989822 62.7466 0.990858 59.5115 0.993314 54.7157C0.993606 54.585 0.993897 54.4543 0.994188 54.3236C0.993606 54.315 0.993023 54.3064 0.992441 54.2977C0.983322 54.1333 0.978109 53.9953 0.97584 53.9242C0.971221 53.7794 0.969504 53.6613 0.96885 53.6172C0.967336 53.5151 0.967231 53.4294 0.967103 53.399C0.966591 53.2744 0.966724 53.132 0.967103 53.0402C0.970624 52.1862 0.992079 49.5116 1.02127 47.3923C1.0512 45.2206 1.08974 43.6726 1.13224 42.0404C1.1366 41.8751 1.14097 41.7099 1.14534 41.5447C1.18384 40.0735 1.22571 38.4726 1.27116 36.1669C1.29891 34.7621 1.47838 33.7639 1.6722 33.9366C1.86587 34.1102 2.00036 35.3879 1.97276 36.7919C1.92494 39.2177 1.88039 40.9211 1.8417 42.3991C1.83733 42.5631 1.83296 42.7271 1.82859 42.8911C1.78792 44.4532 1.75491 45.8221 1.72812 47.7474C1.70621 50.5352 1.70473 52.6076 1.70365 54.5012C1.70082 59.4662 1.69867 63.205 1.32533 75.4097C1.20744 79.2634 1.11412 84.4158 1.03855 91L1.08815 95.0098L5 94.9615C18.6808 95.1185 38.543 95.1988 65.7799 95.2636C77.0612 95.2904 92.7633 95.3449 108.503 95.3999C108.688 95.4004 108.873 95.401 109.058 95.4016C124.992 95.4572 140.916 95.5131 152.318 95.5397C196.758 95.643 240.279 95.2881 284.937 95.8044C293.155 95.7765 300.666 95.7655 307.625 95.7555C328.104 95.726 343.821 95.7028 358.803 95.2723C362.088 95.1779 370.698 95.0978 383.14 94.9979C386.787 94.9687 390.786 94.938 395.109 94.9045C397.936 94.8825 400.902 94.8595 404 94.8352L407.882 94.7872L407.835 91C407.768 82.4827 407.692 72.9655 407.601 62.5934C407.575 59.6298 407.55 56.9748 407.525 54.4452C407.42 43.6249 407.337 35.0843 407.358 14.3886C407.36 11.4669 407.365 8.31869 407.372 5L407.33 1.58696L404 1.62815C378.395 1.57744 342.642 1.42577 322.442 1.30611C311.014 1.23841 304.563 1.17567 299.999 1.1235C298.728 1.10897 297.61 1.0949 296.585 1.08243C293.906 1.04987 291.825 1.02491 289.099 1.00817C269.464 0.887636 255.717 0.970675 233.197 1.14359C231.786 1.15438 230.555 1.0044 230.449 0.808959C230.343 0.61349 231.401 0.445936 232.812 0.435005C255.366 0.261831 269.322 0.177404 289.224 0.299578C292.071 0.317055 294.299 0.344197 297.025 0.377339C298.036 0.389627 299.115 0.402878 300.32 0.416657C304.809 0.467964 311.192 0.530172 322.56 0.597518C342.733 0.717021 378.459 0.868325 404 0.918805L408.03 0.868948L408.081 5C408.075 8.29669 408.07 11.4237 408.067 14.3257C408.047 34.8191 408.128 43.1943 408.232 53.9755C408.257 56.5103 408.283 59.1782 408.309 62.168C408.401 72.7074 408.479 82.3744 408.547 91L408.602 95.4897L404 95.5466C401.033 95.5699 398.189 95.592 395.475 95.613C391.158 95.6466 387.168 95.6774 383.536 95.7065C370.843 95.8084 362.753 95.886 359.939 95.9669C344.431 96.4125 328.031 96.4363 307.362 96.4658C300.479 96.4756 293.121 96.486 285.166 96.513ZM152.033 0.985451C153.445 0.975459 154.67 1.12629 154.77 1.32183C154.87 1.51734 153.808 1.68401 152.396 1.69404C144.938 1.74704 139.577 1.79076 135.386 1.8251C127.628 1.88866 123.879 1.91966 118.264 1.91422C103.77 1.90018 89.7746 1.8931 77.1833 1.88713C56.2539 1.87722 39.1963 1.86931 30.1696 1.83209C28.7542 1.82621 27.6178 1.66259 27.6323 1.46687C27.6481 1.27134 28.807 1.11775 30.2214 1.1235C39.1846 1.16046 56.1138 1.16869 76.9651 1.17854C89.5711 1.1845 103.612 1.19063 118.198 1.20476C123.644 1.21003 127.183 1.18135 134.768 1.11913C138.955 1.08478 144.377 1.03986 152.033 0.985451Z" fill="#2957A4"/>
</svg>
