<svg width="409" height="70" viewBox="0 0 409 70" fill="none" xmlns="http://www.w3.org/2000/svg">
<path d="M30.9688 9.46144C38.1862 9.49296 47.1215 9.29065 54.2621 9.41513C54.3622 9.41688 54.4623 9.41863 54.5624 9.42038C57.4808 9.47126 60.4545 9.54474 64.0523 9.63357C64.5105 9.64488 64.9802 9.65671 65.4599 9.66851C69.7248 9.77343 74.9638 9.89918 82.1029 10.039C106.075 10.5084 124.976 10.1964 130.855 10.0993C142.646 9.90439 155.224 9.90027 172.387 9.89481C173.957 9.89431 175.565 9.89461 177.214 9.89394C178.55 9.89339 179.657 10.0512 179.687 10.2469C179.717 10.4427 178.659 10.602 177.323 10.6025C175.708 10.6032 174.134 10.6038 172.6 10.6043C172.593 10.6043 172.586 10.6043 172.579 10.6043C155.309 10.6099 143.004 10.6141 131.491 10.8044C125.483 10.9036 106.118 11.2224 81.5545 10.7414C74.3395 10.6002 69.0416 10.4739 64.7508 10.3684C64.2811 10.3568 63.8233 10.3453 63.3782 10.3343C63.3677 10.334 63.3572 10.3337 63.3467 10.3334C59.7254 10.244 56.8769 10.1733 54.0839 10.1246C54.0246 10.1237 53.9652 10.1229 53.9058 10.122C46.6848 9.99608 37.92 10.2006 30.9199 10.17C29.5836 10.1641 28.5102 10.0005 28.5239 9.80482C28.5383 9.60925 29.6332 9.45575 30.9688 9.46144ZM348.675 61.8653C341.707 62.1249 332.436 62.0962 324.251 61.9806C316.008 61.8642 308.548 61.6548 305.037 61.5263C301.605 61.4006 297.792 61.36 293.242 61.3349C292.199 61.3292 291.116 61.3243 289.997 61.3192C286.3 61.3024 282.186 61.2835 277.671 61.2275C261.084 61.0218 250.271 61.0131 242.548 61.0317C240.959 61.0356 239.481 61.0409 238.098 61.0457C238.096 61.0457 238.093 61.0457 238.091 61.0457C232.87 61.0641 228.974 61.0775 225.391 60.9968C219.014 60.8531 213.807 60.7257 207.522 60.4769C198.855 60.1338 186.51 60.1746 178.477 60.4105C178.036 60.4235 177.585 60.4372 177.128 60.4507C171.305 60.6228 164.134 60.8346 153.381 60.9924C144.447 61.1236 136.661 61.1133 129.77 61.0763C127.795 61.0657 125.911 61.0526 124.101 61.0405C119.535 61.01 115.447 60.9826 111.597 60.9986C87.7208 61.0976 73.9513 60.9695 65.2971 60.7766C58.6413 60.6283 54.9233 60.4374 52.2411 60.2996C51.4306 60.2579 50.7147 60.2205 50.0407 60.1912C44.0305 59.93 38.5126 59.8126 31.8748 59.6714C30.4017 59.64 28.869 59.6073 27.2679 59.5718C21.9123 59.4529 17.9213 59.4735 14.7917 59.5237C13.423 59.5457 12.2183 59.5727 11.0824 59.5988C11.0615 59.5994 11.0405 59.6 11.0195 59.6006C10.8613 59.6042 10.7041 59.6075 10.5481 59.6111C10.4303 59.6138 10.313 59.6172 10.1953 59.6198C10.149 59.6234 10.1075 59.6256 10.0765 59.6277C10.052 59.6293 10.0329 59.6304 10.0206 59.6312C10.0183 59.6315 10.016 59.6318 10.0137 59.632C9.79076 59.6456 9.59894 59.651 9.55961 59.6521C9.491 59.6541 9.43 59.655 9.39893 59.6556C9.23454 59.6589 9.02278 59.6608 8.88198 59.6618C8.52014 59.6643 7.89133 59.6673 6.91906 59.6705C6.29284 59.6781 5.68541 59.6896 5 59.704L9.296 64C9.29092 63.7589 9.28547 63.5082 9.27971 63.2436C9.27825 63.1796 9.2768 63.1155 9.27534 63.0515C9.2537 62.0599 9.22889 60.8995 9.20457 59.4435C9.18244 58.1187 9.32198 56.9002 9.51649 56.7226C9.71101 56.5456 9.88658 57.4761 9.90879 58.8008C9.93171 60.1727 9.95528 61.2594 9.97694 62.2517C9.9784 62.3145 9.97985 62.3774 9.98131 62.4403C9.99282 62.9686 10.004 63.4827 10.0137 64L5 58.9863C5.49552 58.9769 5.99383 58.9688 6.51041 58.9628C6.86392 58.9587 7.22828 58.9555 7.56872 58.9532C8.18158 58.9444 8.8788 58.9294 9.71329 58.9104C9.88081 58.9065 10.0535 58.9031 10.2302 58.899C11.3641 58.8729 12.6843 58.8425 14.1736 58.8186C17.6591 58.7627 22.0752 58.7417 27.9036 58.871C29.432 58.9049 30.9136 58.9364 32.3603 58.9671C39.0242 59.1087 44.9533 59.2342 51.333 59.5115C52.2084 59.5495 53.0479 59.593 53.9456 59.639C56.6063 59.7755 59.7831 59.9388 65.9363 60.0759C74.1805 60.2596 87.6223 60.3884 111.363 60.29C115.404 60.2732 119.764 60.3026 124.409 60.3336C126.182 60.3455 127.999 60.3569 129.854 60.3668C136.638 60.4032 144.179 60.4131 152.805 60.2865C163.317 60.1321 170.293 59.9266 176.091 59.7552C176.291 59.7491 176.492 59.743 176.692 59.7369C176.941 59.7295 177.188 59.7222 177.432 59.715C185.993 59.4635 199.128 59.4137 208.703 59.7928C214.711 60.0307 219.696 60.1532 226.038 60.2961C229.156 60.3663 232.489 60.3547 237.606 60.3371C239.042 60.3322 240.621 60.3274 242.373 60.3232C250.234 60.3042 261.213 60.3126 277.985 60.5206C282.358 60.5748 286.293 60.593 289.969 60.6097C291.111 60.615 292.232 60.6203 293.329 60.6263C297.901 60.6515 302.156 60.6925 306.123 60.8378C309.384 60.9572 316.604 61.1614 324.621 61.2746C332.695 61.3887 341.268 61.4058 347.394 61.1777C348.031 61.1539 348.673 61.1305 349.315 61.1069C354.841 60.9035 360.475 60.6962 365.011 60.3511C375.12 59.2732 389.305 58.9352 404 58.884L398.884 64C398.832 49.1373 399.074 33.753 399.139 21.5377C399.141 21.2187 399.143 20.8997 399.145 20.5806C399.174 15.0774 399.197 9.86934 399.215 5L404 9.78502C384.059 9.71185 369.8 9.72527 364.217 9.73055C363.893 9.73086 363.598 9.73119 363.333 9.73142C363.097 9.73163 362.883 9.73218 362.694 9.7323C359.864 9.73412 357.361 9.75928 354.737 9.78559C354.594 9.78705 354.451 9.78851 354.308 9.78996C351.536 9.81768 348.627 9.84475 345.188 9.84239C332.402 9.83356 321.979 9.86583 312.961 9.90005C311.291 9.90639 309.667 9.91214 308.085 9.9184C308.08 9.9184 308.075 9.9184 308.071 9.9184C301.125 9.94589 294.963 9.97063 289.115 9.97082C278.452 9.97117 271.25 10.016 265.648 10.0643C263.891 10.0795 262.272 10.0949 260.744 10.1097C257.44 10.1418 254.555 10.1698 251.579 10.1796C245.982 10.1981 240.831 10.2468 235.757 10.2941C235.304 10.2983 234.853 10.3021 234.401 10.3063C228.901 10.3574 223.454 10.4047 217.695 10.4059C216.359 10.4062 215.251 10.247 215.223 10.0512C215.196 9.85555 216.258 9.69676 217.594 9.69647C223.188 9.69525 228.501 9.64964 234 9.59862C234.453 9.59441 234.909 9.58977 235.365 9.58551C240.427 9.53827 245.672 9.48981 251.373 9.47105C254.242 9.46161 256.967 9.4352 260.206 9.40378C261.751 9.38878 263.415 9.37256 265.267 9.3566C270.954 9.30755 278.252 9.26171 289.018 9.26136C294.795 9.26117 300.878 9.23728 307.819 9.20981C309.412 9.20351 311.051 9.197 312.741 9.19059C321.782 9.15628 332.259 9.12405 345.115 9.13292C348.364 9.13517 351.122 9.10984 353.882 9.08225C354.037 9.08079 354.191 9.07933 354.346 9.07788C356.947 9.05178 359.59 9.02475 362.579 9.02283C362.978 9.02258 363.488 9.02254 364.102 9.02196C369.691 9.01667 383.997 9.00291 404 9.07614L399.924 5C399.906 9.89403 399.883 15.1291 399.853 20.661C399.853 20.7483 399.852 20.8356 399.851 20.9229C399.75 39.7798 399.693 50.4181 399.868 58.4282C399.912 60.439 399.945 62.2882 399.971 64L404 59.9713C400.33 60.0268 397.292 60.0469 394.647 60.0584C393.908 60.0616 393.208 60.0647 392.541 60.0672C389.659 60.0777 387.381 60.0862 385.105 60.1353C378.219 60.284 373.281 60.5275 367.306 60.9819C362.241 61.3672 356.036 61.5951 350.6 61.7945C350.592 61.7948 350.584 61.7951 350.576 61.7954C349.931 61.8191 349.296 61.8422 348.675 61.8653ZM8.73363 40.2612C8.73948 38.9255 8.90243 37.8531 9.09797 37.8652C9.29367 37.8788 9.44799 38.9737 9.44222 40.3101C9.42824 43.4944 9.41426 46.6786 9.40028 49.8628C9.39439 51.1984 9.23147 52.2711 9.03594 52.2589C8.84026 52.2452 8.68596 51.1502 8.69169 49.8139C8.70567 46.6297 8.71965 43.4455 8.73363 40.2612ZM354.25 65.3925C352.946 65.4322 351.647 65.3082 351.351 65.1164C351.056 64.9248 351.875 64.7375 353.178 64.6979C353.867 64.6769 355 64.639 356.524 64.5878C364.307 64.3264 382.328 63.7211 404 63.2813L403.281 64C403.101 55.1047 402.948 45.5943 402.859 35.9244C402.833 33.1258 402.807 30.6187 402.783 28.2298C402.709 21.0399 402.438 14.8478 402.291 5L404 6.70948C399.853 6.77143 395.058 6.81139 389.267 6.80532C307.094 6.71924 224.985 5.81927 142.943 6.43661C119.248 6.61492 95.6277 6.64159 71.9145 6.6297C52.1497 6.61979 15.9207 6.25628 7.39616 6.21905C6.05931 6.21322 4.98647 6.04958 5.00013 5.85384C5.01441 5.6582 6.10882 5.50467 7.44506 5.51046C15.9093 5.54742 52.0179 5.91038 71.7084 5.92024C95.376 5.93209 118.948 5.90597 142.598 5.72802C224.734 5.10994 307.107 5.1508 389.375 5.23699C395.15 5.24304 399.903 5.27913 404 5.32402L403.676 5C403.57 14.6341 403.416 20.6433 403.49 27.7862C403.514 30.1807 403.54 32.7017 403.566 35.5262C403.657 45.3482 403.814 54.9999 403.999 64C382.978 64.431 365.511 65.0171 357.732 65.278C356.16 65.3308 354.979 65.3703 354.25 65.3925ZM292.089 65.0963C277.167 65.1499 255.954 65.0545 237.417 64.9705C228.377 64.9296 219.972 64.8908 213.244 64.8744C202.819 64.849 196.256 64.6793 189.748 64.5109C189.678 64.5092 189.608 64.5074 189.538 64.5057C183.034 64.3374 176.525 64.1718 165.938 64.1457C155.263 64.1194 140.492 64.2347 125.593 64.351C125.581 64.351 125.569 64.351 125.558 64.351C110.738 64.4667 95.7057 64.9428 84.8426 64.9155C46.9877 64.8202 23.6461 64.3332 11.8439 63.9509C9.59332 63.878 7.30983 63.8219 5 63.7788L5.22117 64C5.57332 45.1216 5.06001 24.4848 5.81365 5.69335C6.00097 3.36729 6.54026 7.29064 6.38506 11.5787C6.38069 11.7335 6.37632 11.8884 6.37196 12.0432C6.33129 13.518 6.29827 14.8084 6.27148 16.6257C6.24956 19.259 6.24809 21.2186 6.24701 23.007C6.24467 26.8712 6.15691 49.6446 5.91749 64L5 63.0825C8.07663 63.1338 10.7666 63.1921 12.8009 63.258C24.0018 63.6208 46.8534 63.2513 84.9509 63.3471C95.6127 63.3739 110.344 63.7587 125.243 63.6424C125.284 63.6421 125.325 63.6419 125.366 63.6416C140.156 63.5261 155.071 63.4095 165.924 63.4362C176.894 63.4633 183.7 63.6371 190.289 63.8076C190.353 63.8093 190.417 63.8111 190.481 63.8128C196.929 63.9797 203.19 64.1413 213.23 64.1658C220.106 64.1826 228.609 64.2207 237.707 64.2619C256.165 64.3456 277.082 64.4409 291.876 64.3877C293.211 64.383 294.343 64.538 294.401 64.7337C294.459 64.9293 293.424 65.0915 292.089 65.0963ZM291.782 69.513C249.852 70.2987 207.689 70.0782 166.343 69.2482C155.551 69.2217 140.492 69.1666 125.453 69.1111C125.283 69.1102 125.113 69.1093 124.943 69.1085C110.067 69.0535 95.2561 68.9989 84.6226 68.9721C46.7679 68.8769 23.3389 68.7489 11.5365 68.3667C8.96314 68.2833 6.82447 68.2194 5 68.1703L0.885016 68.2242L0.829677 64C0.990385 58.0225 0.991433 55.4178 0.993314 51.948C0.993606 51.8246 0.993897 51.7012 0.994188 51.5778C0.993606 51.5696 0.993023 51.5615 0.992441 51.5533C0.983322 51.3981 0.978109 51.2677 0.97584 51.2006C0.971221 51.0638 0.969504 50.9524 0.96885 50.9107C0.967336 50.8142 0.967231 50.7334 0.967103 50.7046C0.966591 50.587 0.966724 50.4525 0.967103 50.3658C0.970624 49.5593 0.992079 47.0336 1.02127 45.0323C1.0512 42.9815 1.08974 41.5197 1.13224 39.9783C1.13661 39.8223 1.14097 39.6663 1.14534 39.5103C1.18384 38.1209 1.22571 36.6092 1.27116 34.4318C1.29891 33.1053 1.47838 32.1626 1.6722 32.3257C1.86587 32.4897 2.00036 33.6962 1.97276 35.0221C1.92494 37.3128 1.88039 38.9214 1.8417 40.3171C1.83733 40.472 1.83296 40.6268 1.82859 40.7817C1.78792 42.2569 1.75491 43.5495 1.72812 45.3677C1.70621 48.0003 1.70473 49.9573 1.70365 51.7454C1.70155 55.2227 1.69983 58.063 1.54678 64L1.59261 67.4979L5 67.4532C7.06824 67.5065 9.51232 67.5782 12.49 67.6747C23.6905 68.0375 46.5094 68.1677 84.6086 68.2636C95.2619 68.2904 110.09 68.3449 124.954 68.3999C125.128 68.4004 125.303 68.401 125.477 68.4016C140.525 68.4572 155.562 68.5131 166.329 68.5397C208.295 68.643 249.393 68.2881 291.565 68.8044C299.325 68.7765 306.418 68.7655 312.99 68.7555C332.329 68.726 347.171 68.7028 361.319 68.2723C364.421 68.1779 372.552 68.0978 384.302 67.9979C387.745 67.9687 391.522 67.938 395.604 67.9045C398.273 67.8825 401.074 67.8595 404 67.8352L407.885 67.7843L407.835 64C407.768 55.9569 407.692 46.9695 407.601 37.1748C407.575 34.3762 407.55 31.869 407.525 29.4802C407.448 21.9639 407.383 15.6124 407.362 5L407.317 1.59503L404 1.63848C400.186 1.64606 395.821 1.6479 390.654 1.64249C366.607 1.6173 326.317 1.44128 304.77 1.30611C293.978 1.23841 287.886 1.17567 283.576 1.1235C282.376 1.10897 281.321 1.0949 280.352 1.08243C277.822 1.04987 275.858 1.02491 273.283 1.00817C254.741 0.887636 241.76 0.970675 220.493 1.14359C219.161 1.15438 217.999 1.0044 217.898 0.808959C217.798 0.613491 218.797 0.445936 220.13 0.435005C241.428 0.261831 254.607 0.177404 273.402 0.299578C276.09 0.317055 278.193 0.344197 280.768 0.377339C281.722 0.389627 282.742 0.402878 283.88 0.416657C288.118 0.467964 294.147 0.530172 304.882 0.597517C326.391 0.732446 366.622 0.907913 390.594 0.933027C395.803 0.938483 400.182 0.936609 404 0.928919L408.017 0.876294L408.071 5C408.092 15.3684 408.156 21.5957 408.232 29.0366C408.257 31.4303 408.283 33.9497 408.309 36.7731C408.401 46.7257 408.479 55.8546 408.547 64L408.605 68.4863L404 68.5466C401.198 68.5699 398.513 68.592 395.95 68.613C391.873 68.6466 388.105 68.6774 384.675 68.7065C372.689 68.8084 365.049 68.886 362.392 68.9669C347.747 69.4125 332.261 69.4363 312.742 69.4658C306.242 69.4756 299.294 69.486 291.782 69.513ZM143.848 0.985451C145.181 0.975459 146.338 1.12629 146.433 1.32183C146.527 1.51734 145.523 1.68401 144.19 1.69404C137.148 1.74704 132.085 1.79076 128.127 1.8251C120.802 1.88866 117.261 1.91966 111.959 1.91422C98.2714 1.90018 85.0552 1.8931 73.1649 1.88713C53.4006 1.87722 37.2926 1.86931 28.7684 1.83209C27.4318 1.82621 26.3587 1.66259 26.3723 1.46687C26.3872 1.27134 27.4817 1.11775 28.8173 1.1235C37.2815 1.16046 53.2683 1.16869 72.9588 1.17854C84.863 1.1845 98.1226 1.19063 111.896 1.20476C117.039 1.21003 120.381 1.18135 127.544 1.11913C131.498 1.08478 136.617 1.03986 143.848 0.985451Z" fill="white"/>
</svg>
