<svg width="50" height="51" viewBox="0 0 50 51" fill="none" xmlns="http://www.w3.org/2000/svg">
<path fill-rule="evenodd" clip-rule="evenodd" d="M32.0487 21.335V22.615C32.0487 23.5989 31.6655 24.5426 30.9833 25.2384C30.3011 25.9342 29.3759 26.325 28.4112 26.325H19.7902V17.6342H28.4112C29.3743 17.6342 30.2982 18.0238 30.9801 18.7176C31.662 19.4114 32.0463 20.3526 32.0487 21.335ZM44.098 25.4995C44.0947 29.3494 42.9729 33.1119 40.8742 36.3119C38.7756 39.5118 35.7943 42.0057 32.3068 43.4785C28.8194 44.9514 24.9822 45.3371 21.28 44.5869C17.5777 43.8368 14.1765 41.9845 11.5058 39.2639C9.62952 37.4807 8.12461 35.3303 7.08085 32.9411C6.03708 30.5518 5.47584 27.9726 5.4306 25.3573C5.38536 22.742 5.85704 20.1442 6.81752 17.7189C7.778 15.2935 9.20759 13.0904 11.021 11.2408C12.8344 9.3912 14.9945 7.9331 17.3724 6.95347C19.7504 5.97384 22.2974 5.49275 24.8615 5.53889C27.4257 5.58503 29.9545 6.15747 32.297 7.22205C34.6396 8.28663 36.7479 9.82154 38.4962 11.7352C40.2778 13.5363 41.6905 15.6807 42.6521 18.0437C43.6138 20.4067 44.1053 22.9411 44.098 25.4995ZM34.7769 21.335C34.7769 19.6131 34.1062 17.9616 32.9124 16.744C31.7186 15.5264 30.0995 14.8424 28.4112 14.8424H18.408C18.0462 14.8424 17.6993 14.989 17.4434 15.2499C17.1876 15.5108 17.0439 15.8647 17.0439 16.2337V36.6297C17.0439 36.9987 17.1876 37.3526 17.4434 37.6135C17.6993 37.8744 18.0462 38.021 18.408 38.021C18.7698 38.021 19.1167 37.8744 19.3725 37.6135C19.6283 37.3526 19.7721 36.9987 19.7721 36.6297V29.0983H28.393C30.0813 29.0983 31.7004 28.4143 32.8942 27.1967C34.088 25.9791 34.7587 24.3276 34.7587 22.6057L34.7769 21.335ZM49.9999 25.4995C50.0005 30.5429 48.5347 35.4732 45.7878 39.6667C43.0409 43.8603 39.1364 47.1289 34.5681 49.0589C29.9998 50.989 24.9728 51.494 20.1231 50.5099C15.2734 49.5258 10.8188 47.0969 7.32262 43.5305C2.63403 38.7484 0 32.2625 0 25.4995C0 18.7366 2.63403 12.2507 7.32262 7.46865C12.0112 2.68655 18.3703 0 25.001 0C31.6317 0 37.9908 2.68655 42.6794 7.46865C45.0075 9.8314 46.8533 12.6415 48.1098 15.7365C49.3663 18.8314 50.0088 22.1498 49.9999 25.4995ZM46.8262 25.4995C46.8368 21.0889 45.5625 16.7745 43.1651 13.1037C40.7676 9.43294 37.3551 6.57132 33.3604 4.88198C29.3658 3.19264 24.9691 2.75172 20.7284 3.61518C16.4877 4.47865 12.594 6.60756 9.54152 9.73178C5.4414 13.9137 3.13799 19.5855 3.13799 25.4995C3.13799 31.4136 5.4414 37.0854 9.54152 41.2673C13.6416 45.4492 19.2026 47.7985 25.001 47.7985C30.7994 47.7985 36.3604 45.4492 40.4605 41.2673C42.4924 39.2 44.1014 36.7416 45.1942 34.0348C46.287 31.328 46.8417 28.4268 46.8262 25.4995Z" fill="#222222"/>
</svg>
