<svg width="53" height="50" viewBox="0 0 53 50" fill="none" xmlns="http://www.w3.org/2000/svg">
<path d="M13.25 48.4377C9.0928 48.4377 5.64449 45.719 5.40102 42.2471L4.15884 25.344C4.14577 25.1645 4.19879 24.9862 4.30894 24.8393C4.41908 24.6924 4.5796 24.5859 4.76337 24.5377C7.11236 23.922 9.52819 23.5614 11.9639 23.4627C12.2645 23.4534 12.5378 23.4455 12.7945 23.4455C13.1655 23.4237 13.6972 23.4409 14.1667 23.4534L15.2681 23.5018C17.4562 23.635 19.6236 23.9819 21.7358 24.537C21.9196 24.5853 22.0802 24.6919 22.1903 24.839C22.3004 24.986 22.3534 25.1644 22.3403 25.344L21.0981 42.2502C20.8555 45.719 17.408 48.4377 13.25 48.4377ZM5.85898 25.8784L7.05396 42.1409C7.24029 44.7971 9.96151 46.8752 13.25 46.8752C16.5385 46.8752 19.2605 44.7971 19.446 42.1432L20.641 25.8784C18.8503 25.4473 17.0212 25.1738 15.177 25.0612L14.1071 25.0143C13.8206 25.008 13.5191 25.0034 13.2152 25.0002C13.0918 25.0002 12.9676 25.0002 12.8368 25.0073C12.5544 25.0073 12.2985 25.0151 12.026 25.0229C9.94476 25.1086 7.87828 25.3952 5.85898 25.8784Z" fill="black"/>
<path d="M13.25 45.3124C12.133 45.3399 11.0459 44.9703 10.2042 44.277C9.36258 43.5837 8.82784 42.6173 8.70608 41.5695L7.65933 24.7343C7.65023 24.6305 7.66323 24.526 7.69756 24.427C7.73189 24.328 7.78687 24.2365 7.85925 24.1578C7.93164 24.0791 8.01996 24.0149 8.11904 23.9689C8.21812 23.9229 8.32594 23.8961 8.43618 23.89C8.54641 23.8839 8.65682 23.8987 8.76091 23.9334C8.86501 23.9682 8.96068 24.0222 9.04231 24.0924C9.12394 24.1625 9.18987 24.2474 9.23623 24.3419C9.28259 24.4365 9.30844 24.5388 9.31226 24.6429L10.359 41.4804C10.4529 42.1312 10.8018 42.7252 11.3369 43.1453C11.872 43.5654 12.5546 43.7811 13.25 43.7499C13.9466 43.78 14.6298 43.5628 15.1649 43.141C15.7001 42.7193 16.0483 42.1238 16.141 41.4718L17.1877 24.6406C17.2056 24.4373 17.3069 24.2487 17.4702 24.115C17.6335 23.9813 17.8457 23.9131 18.0615 23.925C18.2773 23.937 18.4796 24.0281 18.6252 24.1788C18.7708 24.3296 18.8481 24.5281 18.8407 24.732L17.7948 41.5609C17.6742 42.61 17.14 43.5781 16.2981 44.273C15.4563 44.968 14.3683 45.339 13.25 45.3124Z" fill="black"/>
<path d="M23.1875 26.5625C23.0962 26.5625 23.0056 26.5482 22.9192 26.5203C16.6507 24.5015 9.84933 24.5015 3.58081 26.5203C3.45613 26.5606 3.32306 26.5722 3.19266 26.5542C3.06226 26.5362 2.9383 26.4891 2.83107 26.4169C2.72384 26.3446 2.63644 26.2492 2.57614 26.1387C2.51584 26.0281 2.48438 25.9056 2.48438 25.7812V11.7188C2.48438 9.02515 3.61861 6.44186 5.63755 4.5372C7.6565 2.63253 10.3948 1.5625 13.25 1.5625C16.1052 1.5625 18.8435 2.63253 20.8624 4.5372C22.8814 6.44186 24.0156 9.02515 24.0156 11.7188V25.7812C24.0156 25.9885 23.9284 26.1872 23.7731 26.3337C23.6178 26.4802 23.4071 26.5625 23.1875 26.5625ZM13.25 3.125C10.8349 3.12748 8.51937 4.03369 6.8116 5.64479C5.10383 7.2559 4.14326 9.44031 4.14062 11.7188V24.7086C10.0818 23.0209 16.4182 23.0209 22.3594 24.7086V11.7188C22.3567 9.44031 21.3962 7.2559 19.6884 5.64479C17.9806 4.03369 15.6651 3.12748 13.25 3.125Z" fill="black"/>
<path d="M23.1875 23.4375C23.0962 23.4372 23.0056 23.423 22.9192 23.3953C16.6507 21.3765 9.84934 21.3765 3.58082 23.3953C3.37372 23.46 3.14795 23.4449 2.95254 23.3534C2.75714 23.262 2.60788 23.1014 2.5372 22.9068C2.46652 22.7121 2.48012 22.4989 2.57505 22.3136C2.66998 22.1284 2.83857 21.9859 3.04419 21.9172C9.66102 19.7887 16.839 19.7887 23.4558 21.9172C23.6413 21.9771 23.7982 22.0972 23.8986 22.256C23.999 22.4148 24.0364 22.6021 24.0042 22.7846C23.9721 22.967 23.8723 23.1327 23.7228 23.2523C23.5732 23.3718 23.3835 23.4375 23.1875 23.4375ZM39.75 48.4375C35.592 48.4375 32.1445 45.7187 31.901 42.2469L30.6588 25.3437C30.6458 25.1641 30.6987 24.9858 30.8089 24.8387C30.919 24.6917 31.0795 24.585 31.2634 24.5367C33.3715 23.9823 35.5348 23.6354 37.7186 23.5016L38.8192 23.4539C39.3094 23.4406 39.755 23.4227 40.2485 23.4461C40.4647 23.45 40.7363 23.4531 41.027 23.4617C43.4658 23.5597 45.8847 23.9203 48.2366 24.5367C48.4206 24.5849 48.5812 24.6915 48.6913 24.8386C48.8015 24.9857 48.8544 25.1641 48.8412 25.3437L47.599 42.25C47.3555 45.7187 43.908 48.4375 39.75 48.4375ZM32.359 25.8781L33.554 42.1406C33.7395 44.7969 36.4607 46.875 39.75 46.875C43.0393 46.875 45.7605 44.7969 45.946 42.143L47.141 25.8781C45.1185 25.3944 43.0486 25.1077 40.964 25.0227C40.7015 25.0148 40.4456 25.007 40.2055 25.007C40.02 24.9992 39.8875 25.0008 39.75 24.9992C39.4602 24.9992 39.1687 25.007 38.878 25.0148L37.8097 25.0617C35.97 25.1745 34.1453 25.4479 32.359 25.8781Z" fill="black"/>
<path d="M39.75 45.3124C38.6314 45.3387 37.5432 44.9673 36.7013 44.272C35.8594 43.5766 35.3254 42.608 35.2053 41.5585L34.1593 24.732C34.1519 24.5281 34.2292 24.3296 34.3748 24.1788C34.5204 24.0281 34.7227 23.937 34.9385 23.925C35.1543 23.9131 35.3666 23.9813 35.5298 24.115C35.6931 24.2487 35.7945 24.4373 35.8123 24.6406L36.8582 41.4695C36.9804 42.1079 37.336 42.6857 37.8631 43.1023C38.3903 43.519 39.0556 43.748 39.7433 43.7496C40.431 43.7512 41.0975 43.5252 41.6268 43.111C42.1561 42.6968 42.5147 42.1206 42.6402 41.4827L43.6877 24.6429C43.6916 24.5388 43.7174 24.4365 43.7638 24.3419C43.8101 24.2474 43.8761 24.1625 43.9577 24.0924C44.0393 24.0222 44.135 23.9682 44.2391 23.9334C44.3432 23.8987 44.4536 23.8839 44.5638 23.89C44.6741 23.8961 44.7819 23.9229 44.881 23.9689C44.98 24.0149 45.0684 24.0791 45.1408 24.1578C45.2131 24.2365 45.2681 24.328 45.3024 24.427C45.3368 24.526 45.3498 24.6305 45.3407 24.7343L44.2939 41.5718C44.1718 42.6193 43.6368 43.5852 42.7952 44.2781C41.9535 44.9709 40.8667 45.3401 39.75 45.3124Z" fill="black"/>
<path d="M49.6875 26.5625C49.5962 26.5625 49.5056 26.5482 49.4192 26.5203C43.1507 24.5015 36.3493 24.5015 30.0808 26.5203C29.9561 26.5606 29.8231 26.5722 29.6927 26.5542C29.5623 26.5362 29.4383 26.4891 29.3311 26.4169C29.2238 26.3446 29.1364 26.2492 29.0761 26.1387C29.0158 26.0281 28.9844 25.9056 28.9844 25.7812V11.7188C28.9844 9.02515 30.1186 6.44186 32.1376 4.5372C34.1565 2.63253 36.8948 1.5625 39.75 1.5625C42.6052 1.5625 45.3435 2.63253 47.3624 4.5372C49.3814 6.44186 50.5156 9.02515 50.5156 11.7188V25.7812C50.5156 25.9885 50.4284 26.1872 50.2731 26.3337C50.1178 26.4802 49.9071 26.5625 49.6875 26.5625ZM39.75 23.4375C42.8362 23.4364 45.9057 23.8647 48.8594 24.7086V11.7188C48.8594 9.43955 47.8996 7.25369 46.1913 5.64205C44.483 4.03041 42.166 3.125 39.75 3.125C37.334 3.125 35.017 4.03041 33.3087 5.64205C31.6004 7.25369 30.6406 9.43955 30.6406 11.7188V24.7086C33.5943 23.8647 36.6638 23.4364 39.75 23.4375Z" fill="black"/>
<path d="M29.8125 23.4375C29.6165 23.4375 29.4268 23.3718 29.2773 23.2523C29.1277 23.1327 29.028 22.967 28.9958 22.7846C28.9636 22.6021 29.001 22.4148 29.1014 22.256C29.2019 22.0972 29.3587 21.9771 29.5442 21.9172C36.161 19.7887 43.339 19.7887 49.9558 21.9172C50.1614 21.9859 50.33 22.1284 50.425 22.3136C50.5199 22.4989 50.5335 22.7121 50.4628 22.9068C50.3921 23.1014 50.2429 23.262 50.0475 23.3534C49.8521 23.4449 49.6263 23.46 49.4192 23.3953C43.1507 21.3765 36.3493 21.3765 30.0808 23.3953C29.9944 23.423 29.9038 23.4372 29.8125 23.4375Z" fill="black"/>
</svg>
