<svg width="50" height="50" viewBox="0 0 50 50" fill="none" xmlns="http://www.w3.org/2000/svg">
<path d="M50 42C48.9815 41.9998 47.9749 41.7812 47.048 41.359C46.0924 40.9249 45.0556 40.6986 44.006 40.695C42.9542 40.6991 41.9152 40.9254 40.957 41.359C40.0302 41.7809 39.0238 41.9993 38.0055 41.9993C36.9872 41.9993 35.9808 41.7809 35.054 41.359C34.0953 40.9278 33.0572 40.7016 32.006 40.695C30.9543 40.6999 29.9155 40.9261 28.957 41.359C28.0285 41.7809 27.0204 41.9992 26.0005 41.9992C24.9806 41.9992 23.9725 41.7809 23.044 41.359C22.0901 40.9261 21.0555 40.6998 20.008 40.695C18.9566 40.6999 17.9181 40.9261 16.96 41.359C16.0317 41.7811 15.0238 41.9995 14.004 41.9995C12.9842 41.9995 11.9763 41.7811 11.048 41.359C10.0902 40.9253 9.05145 40.699 8 40.695C6.95231 40.701 5.91759 40.9272 4.963 41.359C4.03198 41.7804 3.02195 41.9989 2 42V37.604C3.0204 37.5982 4.0288 37.3835 4.963 36.973C5.91502 36.5323 6.95095 36.3024 8 36.299C9.086 36.299 10.127 36.549 11.048 36.973C11.9769 37.3834 12.9804 37.5982 13.996 37.604C15.0169 37.5998 16.0259 37.385 16.96 36.973C17.9155 36.5312 18.9553 36.3013 20.008 36.299C21.086 36.299 22.122 36.549 23.044 36.973C23.977 37.3839 24.9845 37.5987 26.004 37.604C27.0212 37.5987 28.0264 37.3839 28.957 36.973C29.9129 36.5313 30.953 36.3014 32.006 36.299C33.079 36.299 34.119 36.549 35.054 36.973C35.949 37.366 36.954 37.604 38.004 37.604C39.0213 37.5995 40.0267 37.3847 40.957 36.973C41.9127 36.5305 42.9529 36.3006 44.006 36.299C45.092 36.299 46.131 36.549 47.048 36.973C47.978 37.3845 48.983 37.5993 50 37.604V42ZM43.048 29.564C46.2 29.564 48.758 27.014 48.758 23.886C48.758 20.755 46.2 18.218 43.048 18.218C39.891 18.218 37.336 20.756 37.336 23.886C37.336 27.014 39.664 29.564 43.048 29.564ZM9.791 32.756C10.234 32.861 10.652 33.014 11.049 33.192C11.9762 33.61 12.9809 33.8284 13.998 33.833C15.048 33.833 16.067 33.595 16.961 33.192C17.918 32.7543 18.9567 32.5239 20.009 32.516C21.087 32.516 22.125 32.778 23.045 33.192C23.9759 33.6104 24.9843 33.8288 26.005 33.833C27.045 33.833 28.063 33.595 28.957 33.192C29.9144 32.7544 30.9534 32.524 32.006 32.516C33.08 32.516 34.121 32.778 35.054 33.192C35.95 33.594 36.954 33.833 38.006 33.833C38.771 33.833 39.508 33.704 40.203 33.487L30.678 16.431L41.757 14.424C43.383 14.116 44.563 12.848 44.563 11.225C44.563 9.435 43.096 8 41.301 8L40.931 8.011L23.817 11.103C22.616 11.376 21.025 13.122 21.931 15.264L22.077 15.609L26.543 23.612L9.791 32.756Z" fill="black"/>
</svg>
